<?xml version="1.0" encoding="utf-8"?>
<!-- Generator: Adobe Illustrator 20.1.0, SVG Export Plug-In . SVG Version: 6.00 Build 0)  -->
<svg version="1.1" id="Слой_1" xmlns="http://www.w3.org/2000/svg" xmlns:xlink="http://www.w3.org/1999/xlink" x="0px" y="0px"
	 viewBox="0 0 63.9 48.6" style="enable-background:new 0 0 63.9 48.6;" xml:space="preserve">
<style type="text/css">
	.st0{display:none;}
	.st1{fill:#28616B;}
	.st2{fill:none;}
</style>
<g id="Слой_1_1_" class="st0">
</g>
<g id="Слой_2">
	<g>
		<path class="st1" d="M51.9,38.1c1.3,0,2.5,0.5,3.4,1.4s1.4,2,1.4,3.4c0,1.3-0.5,2.5-1.4,3.4s-2,1.4-3.4,1.4
			c-1.3,0-2.5-0.5-3.4-1.4s-1.4-2-1.4-3.4c0-1.3,0.5-2.5,1.4-3.4S50.6,38.1,51.9,38.1L51.9,38.1z M53.9,40.9c-0.5-0.5-1.2-0.8-2-0.8
			s-1.5,0.3-2,0.8s-0.8,1.2-0.8,2s0.3,1.5,0.8,2s1.2,0.8,2,0.8s1.5-0.3,2-0.8s0.8-1.2,0.8-2C54.7,42.1,54.4,41.4,53.9,40.9
			L53.9,40.9z"/>
		<path class="st1" d="M23.9,36.9c-0.3,0.5-0.9,0.6-1.3,0.3c-0.5-0.3-0.6-0.9-0.3-1.3l1.4-2.4c0.2-0.3,0.5-0.5,0.8-0.5l0,0h29.6
			c0.5,0,1,0.4,1,1c0,0.5-0.4,1-1,1h-29L23.9,36.9z"/>
		<path class="st1" d="M22.2,19.9c-0.5,0-1-0.4-1-1c0-0.5,0.4-1,1-1h37.2l0.8-4.2c0.1-0.5,0.6-0.9,1.1-0.8s0.9,0.6,0.8,1.1l-0.9,5
			c-0.1,0.5-0.5,0.9-1,0.9C60.2,19.9,22.2,19.9,22.2,19.9z"/>
		<path class="st1" d="M61.1,12.9c0.5,0,1,0.4,1,1c0,0.5-0.4,1-1,1H19.9c-0.5,0-1-0.4-1-1c0-0.5,0.4-1,1-1H61.1z"/>
		<path class="st1" d="M20.7,30c-0.5,0-1-0.4-1-1s0.4-1,1-1h36.7l0.8-4.2c0.1-0.5,0.6-0.9,1.1-0.8c0.5,0.1,0.9,0.6,0.8,1.1l-0.9,5
			c-0.1,0.5-0.5,0.9-1,0.9H20.7z"/>
		<path class="st1" d="M8.8,0.3c0.5,0,1,0.4,1,1c0,0.5-0.4,1-1,1H1.5c-0.5,0-1-0.4-1-1c0-0.5,0.4-1,1-1H8.8z"/>
		<path class="st1" d="M21.6,28.6c0.2,0.5,0,1.1-0.5,1.3s-1.1,0-1.3-0.5L7.9,1.7c-0.2-0.5,0-1.1,0.5-1.3s1.1,0,1.3,0.5L21.6,28.6z"
			/>
		<path class="st1" d="M59.2,23c0.5,0,1,0.4,1,1c0,0.5-0.4,1-1,1H24.4c-0.4,0-0.7-0.2-0.9-0.6l-2.2-5c-0.2-0.5,0-1.1,0.5-1.3
			c0.5-0.2,1.1,0,1.3,0.5L25,23H59.2z"/>
		<path class="st1" d="M4.6,5.9c0.2,0.5,0,1.1-0.5,1.3C3.6,7.4,3,7.2,2.8,6.7l-2.2-5c-0.2-0.5,0-1.1,0.5-1.3s1.1,0,1.3,0.5L4.6,5.9z
			"/>
		<rect x="0.5" y="0.3" class="st2" width="63.4" height="48.3"/>
		<path class="st1" d="M20.8,13.5c0.2,0.5,0,1.1-0.5,1.3c-0.5,0.2-1.1,0-1.3-0.5l-2.2-5c-0.2-0.5,0-1.1,0.5-1.3
			c0.1-0.1,0.3-0.1,0.4-0.1H62c0.5,0,1,0.4,1,1c0,0.5-0.4,1-1,1H19.2L20.8,13.5z"/>
		<path class="st1" d="M6.1,5.4c0.5,0,1,0.4,1,1c0,0.5-0.4,1-1,1H3.7c-0.5,0-1-0.4-1-1c0-0.5,0.4-1,1-1H6.1z"/>
		<path class="st1" d="M19.2,38.1c1.3,0,2.5,0.5,3.4,1.4s1.4,2,1.4,3.4c0,1.3-0.5,2.5-1.4,3.4c-0.9,0.9-2.1,1.4-3.4,1.4
			s-2.5-0.5-3.4-1.4s-1.4-2-1.4-3.4c0-1.3,0.5-2.5,1.4-3.4C16.7,38.6,17.9,38.1,19.2,38.1L19.2,38.1z M21.1,40.9
			c-0.5-0.5-1.2-0.8-2-0.8s-1.5,0.3-2,0.8s-0.8,1.2-0.8,2s0.3,1.5,0.8,2s1.2,0.8,2,0.8s1.5-0.3,2-0.8s0.8-1.2,0.8-2
			C22,42.1,21.7,41.4,21.1,40.9L21.1,40.9z"/>
	</g>
</g>
<g id="Слой_3" class="st0">
</g>
</svg>
